<?xml version="1.0" standalone="no"?><!DOCTYPE svg PUBLIC "-//W3C//DTD SVG 1.1//EN" "http://www.w3.org/Graphics/SVG/1.1/DTD/svg11.dtd"><svg t="1596444540298" class="icon" viewBox="0 0 3268 1024" version="1.1" xmlns="http://www.w3.org/2000/svg" p-id="801" xmlns:xlink="http://www.w3.org/1999/xlink" width="638.28125" height="200"><defs><style type="text/css"></style></defs><path d="M210.609929 126.002837c-65.361702 1.089362-89.32766 2.541844-91.506383 5.809929-3.631206 5.809929-3.631206 204.8 0 207.341844 1.452482 0.726241 11.256738-14.887943 21.787234-35.222695C176.839716 233.486525 226.587234 182.286525 291.585816 148.879433c29.412766-14.887943 37.764539-21.787234 27.234042-21.787234-2.541844 0-7.988652-0.363121-11.982979-1.089362-3.994326-0.363121-47.205674-0.363121-96.22695 0zM530.88227 126.365957c-11.982979 1.815603-8.351773 7.988652 12.346099 19.971632 22.150355 13.07234 60.641135 53.741844 70.80851 74.076595 8.351773 17.066667 14.161702 19.971631 14.524823 7.262412 1.089362-31.591489-0.726241-95.137589-2.904964-97.316312-2.904965-2.904965-79.886525-6.17305-94.774468-3.994327zM375.829787 153.963121c-37.401418 9.441135-59.551773 17.429787-67.903546 23.602836-4.720567 3.631206-16.340426 10.167376-25.78156 14.887944-10.893617 5.446809-31.228369 22.876596-54.468085 46.842553-31.228369 32.31773-39.943262 43.937589-54.104965 73.350355-24.692199 49.747518-40.306383 117.651064-28.686525 124.913475 2.178723 1.089362 65.361702 1.815603 140.890781 1.815603 126.002837 0 137.622695-0.363121 141.980141-6.17305 3.631206-5.083688 3.994326-34.859574 2.178724-140.89078-1.089362-73.713475-2.541844-136.533333-3.268085-139.075178-1.815603-5.446809-26.507801-5.083688-50.83688 0.726242zM449.180142 154.326241c-5.446809 5.083688-6.17305 15.977305-6.17305 78.070922s0.726241 72.260993 5.809929 74.076596c3.268085 1.089362 39.217021 2.178723 79.886525 2.178723 83.51773 0 82.065248 0.363121 74.439716-26.507801-20.334752-69.719149-71.897872-119.466667-135.080851-131.449646-9.804255-1.815603-14.524823-0.726241-18.882269 3.631206zM928.862411 295.943262c-81.702128 22.513475-133.628369 87.148936-133.628368 166.672341 0 67.903546 21.787234 102.4 97.316312 153.6 6.53617 4.720567 13.07234 8.351773 14.161702 8.351773 7.262411 0 76.98156 37.038298 107.120567 57.009929 39.217021 26.144681 54.831206 43.937589 67.540426 78.434043 9.804255 25.78156 10.893617 71.534752 2.541844 99.495035-6.53617 22.150355-26.507801 49.021277-45.026951 60.641135-34.496454 21.787234-86.785816 26.507801-124.187234 11.619858-33.770213-13.798582-81.702128-54.831206-96.590071-82.065248-3.631206-6.899291-10.893617-19.24539-15.614184-27.234043-5.083688-7.988652-12.346099-20.697872-15.977305-28.323404-7.262411-14.161702-16.703546-18.156028-16.703546-6.899291 0 8.714894 21.060993 111.478014 25.78156 126.729078 4.720567 15.251064 21.060993 23.239716 70.808511 35.585816 61.730496 15.614184 126.365957 13.07234 171.756028-6.536171 31.228369-13.435461 83.15461-59.914894 94.411348-84.243971 33.043972-72.987234 34.133333-118.014184 3.631205-176.476596-15.614184-29.775887-23.239716-38.12766-57.009929-62.456737-25.78156-18.519149-51.2-31.95461-102.036879-54.104965-21.424113-9.078014-41.758865-21.787234-73.350355-45.390071-20.697872-15.251064-29.412766-28.323404-41.395744-62.456738-13.798582-39.943262 0.726241-95.86383 33.770212-126.002836 18.156028-17.429787 72.260993-27.597163 102.4-19.971632 6.899291 1.815603 17.066667 4.357447 22.150355 5.446809 24.692199 5.446809 65.724823 53.378723 80.975886 94.411347 11.982979 31.228369 14.161702 34.133333 37.038298 44.30071 19.608511 8.714894 38.49078 27.597163 50.473759 51.2 3.994326 7.625532 18.519149 33.407092 32.680851 57.373049 13.798582 23.965957 29.412766 51.926241 34.133334 61.730497 7.988652 16.340426 30.865248 56.283688 40.669503 70.80851 1.815603 2.904965 7.625532 14.161702 12.70922 25.05532 9.441135 19.24539 9.441135 19.24539 7.988652 96.22695-1.452482 78.797163-2.904965 85.696454-18.156028 102.76312-3.994326 4.357447-17.792908 10.530496-30.502128 14.161703-12.70922 3.268085-23.239716 7.625532-23.239716 9.078014 0 1.815603 46.116312 3.268085 102.763121 3.268085 84.970213-0.363121 101.310638-1.089362 96.22695-5.083688-3.631206-2.541844-14.887943-6.53617-25.78156-9.078014-13.435461-2.904965-22.876596-7.625532-30.139007-15.251064l-10.530497-10.893617V806.12766c0-87.148936 0.726241-101.673759 5.809929-107.483688 3.268085-3.994326 9.441135-14.161702 13.798582-23.239717 4.357447-9.078014 13.07234-24.692199 18.882269-34.496454 6.17305-10.167376 15.251064-27.234043 20.334752-38.127659 5.446809-10.893617 13.798582-26.507801 18.88227-34.496454 5.083688-7.988652 12.346099-20.334752 15.977305-27.234043 3.994326-6.899291 7.988652-13.435461 9.441134-14.524822 1.089362-1.089362 8.351773-11.256738 15.977305-22.513475 17.792908-26.507801 30.139007-38.49078 45.026951-44.66383 26.870922-11.256738 13.07234-13.798582-71.534752-13.435461-42.848227 0-47.205674 2.904965-19.971631 13.07234 20.697872 7.988652 23.602837 17.429787 14.161702 45.390071-9.078014 26.870922-87.512057 182.649645-94.774468 188.096454-4.357447 3.268085-7.262411 3.631206-10.893617 0.363121-5.083688-3.994326-26.870922-41.758865-53.741844-91.869504-8.351773-15.977305-22.876596-41.758865-31.59149-57.009929-20.697872-35.585816-30.502128-64.998582-25.055319-75.165958 2.178723-3.994326 10.530496-9.078014 18.519149-11.256737 7.988652-2.178723 14.524823-5.446809 14.524823-7.262411 0-4.357447-1.815603-4.357447-82.065248-5.083688-43.211348-0.363121-63.546099-1.815603-67.540426-4.720568-3.268085-2.904965-7.625532-20.334752-11.619858-47.205674-3.268085-23.602837-7.988652-51.563121-10.530497-62.456737-4.720567-21.787234-0.726241-19.24539-51.56312-33.407092-30.139007-7.988652-102.036879-8.714894-129.634043-1.452483zM555.574468 322.451064c-27.597163 0.726241-42.485106 2.541844-44.300709 5.446808-3.268085 5.083688-3.994326 71.897872-0.726241 80.249646 7.988652 20.697872 72.260993-19.971631 86.785815-54.468085 5.809929-14.161702 7.262411-29.412766 2.904965-31.228369-1.815603-0.726241-21.787234-0.726241-44.66383 0zM472.056738 363.846809c-3.994326 6.53617-7.262411 15.614184-7.262412 19.60851 0 10.167376 13.435461 26.870922 21.787234 26.870922 5.809929 0 6.899291-3.631206 7.988653-25.41844 0.726241-14.161702 0.726241-27.234043 0-29.049645-2.904965-7.988652-15.614184-3.268085-22.513475 7.988653zM615.489362 387.449645c-3.631206 5.809929-15.614184 18.519149-26.507802 29.049646-11.256738 10.530496-19.24539 20.334752-17.429787 21.787234 3.268085 3.268085 50.110638 1.815603 53.741844-1.815603 2.178723-2.178723 4.357447-37.401418 3.268085-52.652482-0.726241-9.078014-5.809929-7.625532-13.07234 3.631205zM2521.87234 436.834043c-41.758865 10.530496-58.099291 18.519149-76.98156 38.127659-10.530496 10.893617-23.602837 29.049645-29.049645 40.306383-9.078014 18.156028-10.167376 24.329078-10.167376 56.646809 0.363121 42.848227 2.904965 49.021277 34.859574 83.15461 19.24539 20.697872 28.686525 26.870922 74.802837 50.110638C2574.161702 734.956028 2610.836879 762.553191 2625.361702 787.971631c7.988652 14.524823 9.078014 20.697872 9.078014 52.652482-0.363121 29.775887-1.452482 38.853901-7.988652 50.83688-17.792908 34.133333-46.479433 50.473759-87.875177 50.473759-23.965957 0-30.865248-1.815603-52.289362-12.3461-27.960284-13.798582-56.646809-43.574468-75.529078-78.434042-21.060993-38.853901-27.960284-40.306383-21.424114-4.720567 10.530496 58.462411 15.251064 78.070922 20.334752 83.51773 7.262411 7.988652 44.66383 19.24539 84.243972 25.41844 26.870922 3.994326 33.770213 3.994326 61.730496-1.815603 51.2-10.530496 74.076596-24.692199 103.852482-63.546099 19.971631-25.78156 27.597163-50.836879 27.597164-90.417022 0-34.496454-3.994326-45.753191-26.507802-76.255319-17.429787-22.876596-46.479433-42.485106-108.209929-72.987234-76.61844-37.764539-99.131915-63.546099-99.131915-112.930496-0.363121-23.965957 1.089362-29.775887 10.893617-47.205674 15.614184-27.597163 36.312057-40.306383 70.44539-42.848227 29.775887-2.178723 51.563121 4.720567 71.897873 22.513475 15.251064 13.435461 35.222695 43.211348 38.49078 58.462412 1.452482 5.809929 5.083688 14.161702 7.988652 18.156028 4.720567 6.17305 5.809929 6.53617 8.714894 1.815603 1.815603-2.904965 2.541844-9.441135 1.452482-14.524823-6.53617-31.228369-8.714894-43.937589-10.893617-62.456738l-1.815603-20.697872-18.882269-5.446808c-43.211348-12.346099-82.065248-15.614184-109.662412-8.351773zM2150.036879 445.548936c-1.815603 3.631206-5.083688 13.798582-7.625531 22.876596-3.631206 13.798582-16.703546 46.479433-38.12766 96.22695-2.541844 5.809929-7.625532 18.88227-11.256738 29.049646-3.631206 9.804255-8.714894 22.150355-11.256737 27.234042-2.541844 5.083688-4.720567 10.893617-4.720568 13.435461 0 2.178723-3.994326 13.798582-8.714893 25.41844-18.519149 43.937589-50.836879 127.092199-57.009929 146.337589-8.714894 27.960284-26.507801 69.719149-37.401419 88.238297-12.346099 20.697872-26.144681 33.407092-44.66383 40.669504-8.714894 3.631206-15.614184 7.625532-15.614184 9.441135s33.407092 3.268085 74.802837 3.268085c55.194326 0 74.439716-1.089362 73.350355-4.357447-0.726241-2.178723-8.714894-6.17305-17.792908-9.078014-27.597163-8.351773-34.133333-15.614184-33.770213-38.49078 0.363121-24.329078 31.591489-123.824113 42.485106-136.170213 7.262411-7.625532 9.078014-7.988652 84.970213-7.988653 68.992908 0 78.070922 0.726241 83.880851 6.536171 6.899291 6.899291 40.669504 95.500709 49.384397 129.270922 6.899291 27.960284 3.268085 36.312057-21.060993 45.390071-34.859574 13.07234-26.507801 14.887943 64.635461 14.887943 47.205674 0 85.696454-1.452482 85.696454-2.904965 0-1.815603-7.988652-6.53617-17.792907-10.530496-21.424113-9.441135-37.401418-25.055319-46.842554-45.753192-12.346099-26.507801-68.266667-173.571631-74.076595-194.995744-3.268085-11.256738-37.038298-100.221277-47.205674-123.460993-2.178723-5.083688-8.351773-22.150355-13.798582-38.12766-14.887943-42.121986-30.502128-82.791489-33.770212-88.238298-4.357447-6.17305-12.70922-5.446809-16.703547 1.815603z m1.815603 115.472341c1.089362 3.994326 9.441135 26.144681 18.519149 49.021276 45.02695 115.10922 45.390071 118.014184 25.41844 121.64539-6.53617 1.089362-37.764539 1.815603-69.719149 1.089362-56.283688-1.089362-58.099291-1.452482-59.188652-9.078014-1.089362-7.262411 12.70922-51.926241 23.239716-75.529078 2.541844-6.17305 7.262411-17.429787 9.804255-25.41844 15.614184-42.848227 21.787234-58.825532 28.686525-72.260993l7.262411-14.524823 6.899291 9.078015c3.631206 4.720567 7.625532 11.982979 9.078014 15.977305zM1598.819858 445.912057c-10.530496 0.726241-19.24539 2.178723-19.24539 3.631205s6.17305 5.809929 13.435461 9.804256 16.703546 13.07234 21.060993 19.971631c6.899291 12.346099 7.262411 17.792908 7.262411 217.87234 0 197.537589-0.363121 205.526241-7.262411 215.693617-6.899291 10.530496-37.764539 27.597163-49.747518 27.597164-3.631206 0-6.53617 1.452482-6.53617 3.631205 0 5.083688 201.168794 4.720567 232.397163 0 68.629787-10.893617 116.561702-42.121986 139.075177-90.053901 9.441135-19.971631 10.893617-27.234043 10.530497-54.104964 0-26.870922-1.452482-33.407092-11.619858-54.104965-15.251064-31.228369-51.926241-59.551773-88.964539-68.266666-11.619858-2.904965-19.971631-8.351773-19.971631-13.072341 0-1.815603 8.714894-7.262411 19.24539-11.982978 24.692199-11.619858 47.931915-32.31773 57.73617-51.2 10.893617-21.060993 13.07234-60.641135 4.720567-86.059575-12.70922-38.12766-48.658156-62.456738-99.858156-66.814184-26.507801-2.541844-172.84539-4.357447-202.258156-2.541844z m178.655319 15.614184c45.02695 12.70922 71.897872 60.641135 65.724823 117.287943-6.899291 59.914894-46.116312 89.32766-120.556028 89.32766-26.144681 0-34.859574-1.452482-39.580142-5.809929-5.083688-5.083688-5.809929-17.066667-4.720568-99.495036 0.726241-72.624113 2.178723-94.774468 6.17305-99.131914 3.994326-5.083688 11.982979-6.17305 41.758865-6.17305 19.971631 0 43.211348 1.815603 51.2 3.994326z m11.982979 229.492199c34.859574 12.346099 54.104965 28.323404 69.719149 58.825532 11.256738 22.513475 12.346099 27.234043 12.70922 57.73617 0 43.937589-7.988652 66.087943-33.407092 91.506383-26.870922 26.870922-50.110638 35.222695-96.226951 33.407092-31.228369-1.089362-35.948936-2.178723-44.300709-9.804255-15.614184-14.524823-17.429787-28.686525-19.24539-132.175887-2.178723-120.192908-5.446809-112.930496 47.931915-110.751773 26.144681 1.452482 43.574468 4.357447 62.819858 11.256738zM2721.951773 445.912057c-9.078014 1.815603-5.083688 9.078014 6.53617 11.982978 13.435461 3.631206 23.965957 13.435461 29.775887 27.597164 6.53617 14.887943 7.625532 400.885106 1.089361 417.588652-6.53617 17.792908-17.429787 25.78156-43.574468 32.680851-13.798582 3.268085-25.055319 7.625532-25.055319 9.078014 0 4.357447 343.512057 4.720567 354.405674 0.363121 2.904965-1.089362 5.809929-5.446809 6.53617-9.804255 2.178723-11.256738 20.334752-86.422695 22.513475-94.048227 1.452482-4.357447 0-6.17305-5.446808-6.17305-4.357447 0-8.351773 3.268085-9.804255 7.988652-4.720567 14.887943-30.502128 53.015603-44.66383 65.724823-20.697872 18.519149-44.66383 24.329078-102.4 24.329078-41.395745 0-50.473759-1.089362-63.90922-7.625532-22.513475-10.893617-23.965957-18.156028-25.41844-127.092198l-1.452482-93.321986 7.988652-5.809929c6.53617-4.357447 17.429787-5.809929 48.658156-5.446809 76.98156 0.363121 90.053901 5.809929 102.763121 41.395745 3.631206 10.530496 8.714894 18.156028 11.619858 18.156028 4.720567 0 5.446809-10.893617 5.446809-68.629787 0-78.797163-2.541844-85.333333-19.608511-48.295035-15.614184 34.859574-19.608511 36.675177-86.059574 38.49078-36.675177 0.726241-57.73617-0.363121-62.819859-2.904965-7.625532-3.994326-7.625532-6.17305-7.625531-101.310638 0-82.065248 0.726241-98.405674 5.809929-105.304965 5.083688-7.625532 7.988652-7.988652 59.551773-7.988652 67.540426 0 86.059574 5.809929 111.114893 34.133333 9.078014 10.167376 17.066667 22.513475 18.519149 27.597163 5.083688 19.608511 12.346099 33.770213 15.977305 30.139007 4.357447-4.357447-2.904965-95.137589-7.625532-100.584397-2.904965-2.904965-288.31773-5.446809-302.842553-2.904964zM147.42695 455.716312c-7.262411 7.262411-7.262411 26.507801-0.36312 67.177305 5.083688 29.049645 18.519149 75.529078 29.049645 99.858156 2.541844 5.809929 6.53617 16.340426 9.441135 23.239716 4.357447 11.982979 41.395745 72.987234 46.479433 76.61844 1.452482 1.089362 10.167376 11.982979 19.24539 23.965958 21.424113 27.960284 61.367376 64.998582 94.411347 87.512056 37.038298 25.41844 74.802837 47.205674 91.506383 53.015603 8.351773 2.904965 26.870922 9.804255 41.758865 14.887943 32.680851 11.982979 87.875177 23.239716 122.008511 24.692199l25.41844 1.089362 1.815603-230.21844c1.089362-152.510638 0.726241-233.123404-1.815603-237.843972-3.631206-7.262411-6.53617-7.262411-238.207092-8.714893-212.425532-1.089362-235.302128-0.363121-240.748937 4.720567z" fill="#2BC1E8" p-id="802"></path><path d="M118.740426 575.90922c-1.452482 1.452482-2.541844 87.148936-2.541844 190.638298 0 182.286525 0.363121 188.459574 6.89929 192.09078 9.078014 4.720567 410.326241 5.083688 417.951773 0 6.53617-3.994326-4.720567-8.714894-39.943262-16.703546-55.194326-13.07234-157.594326-63.182979-189.912057-93.685107-5.809929-5.446809-19.24539-15.977305-29.775886-23.965957-10.530496-7.625532-25.41844-22.150355-33.043972-31.591489-7.625532-9.441135-23.239716-27.597163-34.496454-39.943263-14.524823-16.340426-27.597163-37.401418-47.568794-78.070922-15.251064-30.502128-30.502128-64.635461-33.770213-75.529078-6.899291-21.787234-10.167376-26.870922-13.798581-23.239716z" fill="#2BC1E8" p-id="803"></path></svg>