<?xml version="1.0" standalone="no"?><!DOCTYPE svg PUBLIC "-//W3C//DTD SVG 1.1//EN" "http://www.w3.org/Graphics/SVG/1.1/DTD/svg11.dtd"><svg class="icon" width="32px" height="32.00px" viewBox="0 0 1024 1024" version="1.1" xmlns="http://www.w3.org/2000/svg"><path fill="#ffffff" d="M557.754182 638.836364h-125.44l-15.755637 111.639272-61.044363-10.752 14.242909-100.887272H279.272727v-69.818182h100.352l13.149091-93.090909H279.272727v-69.818182h123.345455l17.92-126.836364 61.067636 10.775273-16.407273 116.061091h125.44l16.081455-114.036364 61.067636 10.752-14.592 103.284364H744.727273v69.818182h-101.399273l-13.149091 93.090909H744.727273v69.818182h-124.416l-17.570909 124.439272-61.044364-10.752 16.058182-113.687272z m9.867636-69.818182l13.149091-93.090909h-125.44l-13.149091 93.090909h125.44zM465.454545 46.545455h93.09091c257.070545 0 465.454545 208.384 465.454545 465.454545s-208.384 465.454545-465.454545 465.454545h-93.09091C208.384 977.454545 0 769.070545 0 512S208.384 46.545455 465.454545 46.545455z m0 69.818181C246.946909 116.363636 69.818182 293.492364 69.818182 512s177.128727 395.636364 395.636363 395.636364h93.09091c218.507636 0 395.636364-177.128727 395.636363-395.636364S777.053091 116.363636 558.545455 116.363636h-93.09091z" /></svg>