<?xml version="1.0" standalone="no"?><!DOCTYPE svg PUBLIC "-//W3C//DTD SVG 1.1//EN" "http://www.w3.org/Graphics/SVG/1.1/DTD/svg11.dtd"><svg t="1673258461499" class="icon" viewBox="0 0 1024 1024" version="1.1" xmlns="http://www.w3.org/2000/svg" p-id="5612" xmlns:xlink="http://www.w3.org/1999/xlink" width="200" height="200"><path fill="#ffffff" d="M597.333333 388.266667h-170.666666c-25.6 0-42.666667 17.066667-42.666667 42.666666v170.666667c0 25.6 17.066667 42.666667 42.666667 42.666667h170.666666c25.6 0 42.666667-17.066667 42.666667-42.666667v-170.666667c0-25.6-17.066667-42.666667-42.666667-42.666666z" p-id="5613"></path><path fill="#ffffff" d="M507.733333 98.133333C273.066667 98.133333 85.333333 285.866667 85.333333 520.533333s187.733333 422.4 422.4 422.4 422.4-187.733333 422.4-422.4-192-422.4-422.4-422.4z m0 780.8c-196.266667 0-358.4-162.133333-358.4-358.4 0-196.266667 162.133333-358.4 358.4-358.4 196.266667 0 358.4 162.133333 358.4 358.4 0 196.266667-162.133333 358.4-358.4 358.4z" p-id="5614"></path></svg>