<?xml version="1.0" standalone="no"?><!DOCTYPE svg PUBLIC "-//W3C//DTD SVG 1.1//EN" "http://www.w3.org/Graphics/SVG/1.1/DTD/svg11.dtd"><svg class="icon" width="32px" height="32.00px" viewBox="0 0 1024 1024" version="1.1" xmlns="http://www.w3.org/2000/svg"><path fill="#ffffff" d="M819.2 614.4c-40.96 0-76.8 25.6-92.16 61.44L435.2 512l286.72-163.84C742.4 384 778.24 409.6 819.2 409.6c56.32 0 102.4-46.08 102.4-102.4s-46.08-102.4-102.4-102.4c-51.2 0-92.16 35.84-102.4 87.04l-312.32 179.2c-15.36-51.2-51.2-92.16-102.4-107.52L373.76 256c51.2-10.24 87.04-51.2 87.04-102.4 0-56.32-46.08-102.4-102.4-102.4S256 97.28 256 153.6c0 40.96 25.6 76.8 61.44 92.16l-76.8 112.64C163.84 368.64 102.4 430.08 102.4 512s61.44 143.36 138.24 153.6l76.8 112.64C281.6 793.6 256 829.44 256 870.4c0 56.32 46.08 102.4 102.4 102.4s102.4-46.08 102.4-102.4c0-51.2-35.84-92.16-87.04-102.4l-71.68-112.64c51.2-15.36 92.16-56.32 102.4-107.52l317.44 179.2c5.12 51.2 51.2 87.04 102.4 87.04 56.32 0 102.4-46.08 102.4-102.4s-51.2-97.28-107.52-97.28z m0-358.4c30.72 0 51.2 20.48 51.2 51.2s-20.48 51.2-51.2 51.2-51.2-20.48-51.2-51.2 20.48-51.2 51.2-51.2zM358.4 102.4c30.72 0 51.2 20.48 51.2 51.2s-20.48 51.2-51.2 51.2-51.2-20.48-51.2-51.2 20.48-51.2 51.2-51.2z m51.2 768c0 30.72-20.48 51.2-51.2 51.2s-51.2-20.48-51.2-51.2 20.48-51.2 51.2-51.2 51.2 20.48 51.2 51.2zM256 614.4c-56.32 0-102.4-46.08-102.4-102.4S199.68 409.6 256 409.6 358.4 455.68 358.4 512 312.32 614.4 256 614.4zM819.2 768c-30.72 0-51.2-20.48-51.2-51.2s20.48-51.2 51.2-51.2 51.2 20.48 51.2 51.2-20.48 51.2-51.2 51.2z" /></svg>