<?xml version="1.0" standalone="no"?><!DOCTYPE svg PUBLIC "-//W3C//DTD SVG 1.1//EN" "http://www.w3.org/Graphics/SVG/1.1/DTD/svg11.dtd"><svg class="icon" width="32px" height="32.00px" viewBox="0 0 1024 1024" version="1.1" xmlns="http://www.w3.org/2000/svg"><path fill="#ffffff" d="M976.821 175.308a51.825 51.825 0 0 0 0-10.237C978.101 72.298 774.001 0 513.6 0S45.9 72.298 45.9 165.07v666.682c35.189 115.805 225.852 191.942 473.458 191.942a743.458 743.458 0 0 0 323.743-63.98 606.539 606.539 0 0 0 63.981-37.11l15.995-12.796 18.555-14.076a34.55 34.55 0 0 0 4.478-48.625 30.71 30.71 0 0 0-20.474-11.517 38.389 38.389 0 0 0-28.151 7.678l-11.517 10.237a63.98 63.98 0 0 1-15.995 11.517 287.914 287.914 0 0 1-40.308 24.952l-15.995 5.758a658.363 658.363 0 0 1-293.672 57.583c-236.09 0-383.886-72.298-405.64-143.957V690.994a703.79 703.79 0 0 0 280.237 81.895 868.22 868.22 0 0 0 511.847-79.976v46.066a33.91 33.91 0 0 0 67.82 0V182.985a27.512 27.512 0 0 0 0-8.317z m-69.1 464.5a767.77 767.77 0 0 1-506.728 89.574c-149.075-18.554-255.923-63.98-287.914-94.692V473.46a678.837 678.837 0 0 0 280.236 83.175 867.58 867.58 0 0 0 511.848-80.616z m0-217.534a767.77 767.77 0 0 1-506.728 89.573c-148.435-17.915-255.923-63.98-287.914-97.89V252.084A873.34 873.34 0 0 0 513.6 330.14a866.941 866.941 0 0 0 396.682-77.417z m-10.876-238.649a341.018 341.018 0 0 1-83.175 36.47A978.908 978.908 0 0 1 507.2 262.321a967.391 967.391 0 0 1-303.269-42.228 245.687 245.687 0 0 1-80.616-41.587 54.384 54.384 0 0 1-12.796-12.157 67.82 67.82 0 0 1 15.995-14.075 170.19 170.19 0 0 1 79.976-35.19 967.391 967.391 0 0 1 303.27-42.227 967.391 967.391 0 0 1 303.27 42.227 249.525 249.525 0 0 1 80.615 39.028c11.517 8.958 12.796 12.797 12.796 12.797s2.56 3.838-8.957 12.156z"  /><path fill="#ffffff" d="M830.945 422.274a33.91 33.91 0 1 0-17.275-4.479 33.91 33.91 0 0 0 17.275 4.479z m0 217.535a33.91 33.91 0 0 0 16.635-63.981 33.91 33.91 0 0 0-33.91 58.862 33.91 33.91 0 0 0 17.275 5.119zM813.67 789.524a33.91 33.91 0 1 0 33.91 0 33.91 33.91 0 0 0-33.91 0z"  /></svg>