<?xml version="1.0" standalone="no"?><!DOCTYPE svg PUBLIC "-//W3C//DTD SVG 1.1//EN" "http://www.w3.org/Graphics/SVG/1.1/DTD/svg11.dtd"><svg class="icon" width="32px" height="32.00px" viewBox="0 0 1024 1024" version="1.1" xmlns="http://www.w3.org/2000/svg"><path fill="#ffffff" d="M738.79 370.67H293.18a32 32 0 0 0 0 64h445.61a32 32 0 0 0 0-64zM967 514.68h-38.56V126c0-70.7-57.67-126-128-126H227.53C157.22 0 95.68 55.28 95.68 126v388.7H57.15A57.35 57.35 0 0 0 0 571.89v246.34a57.35 57.35 0 0 0 57.15 57.21h38.53V894c0 70.69 61.54 130 131.85 130h572.92c68.78 0 124.65-56 127.06-124.5 0.15-1.26 0.93-3.37 0.93-4.65v-19.41H967a57.35 57.35 0 0 0 57.15-57.21V571.89A57.35 57.35 0 0 0 967 514.68zM865.61 893.57l-0.73-3c0 35.35-29.27 66-64.43 66H227.54c-35.16 0-65.6-27.17-65.6-62.51v-18.62h703.67zM319.7 721.52c-3.22-3.81-8.85-7.2-16.85-10.07q-8.24-2.82-37.5-10.14-37.65-9.31-52.82-22.89c-14.25-12.83-21.35-28.35-21.35-46.75a59.79 59.79 0 0 1 10-33.16q10-15.5 28.94-23.52t45.63-8.08q43.68 0 65.72 19.15t23.19 51.18l-46.81 2.07c-2-11.95-6.32-20.53-12.91-25.79s-16.47-7.82-29.66-7.82c-13.6 0-24.26 2.82-31.94 8.39a16.91 16.91 0 0 0-7.44 14.39c0 5.51 2.31 10.2 7 14.14q8.86 7.41 43 15.52t50.54 16.71a64.86 64.86 0 0 1 25.63 23.59c6.16 9.94 9.25 22.27 9.25 36.91a68.6 68.6 0 0 1-11.06 37.41Q349.2 790.13 329 798.6t-50.48 8.52c-29.31 0-51.81-6.83-67.53-20.34s-25.1-33.35-28.13-59.31l45.48-4.47c2.75 15.33 8.32 26.53 16.69 33.73s19.69 10.76 33.94 10.76q22.61 0 34.07-9.57t11.47-22.4a21.14 21.14 0 0 0-4.81-14z m315.13 71.64l-17.25 33.1a109.11 109.11 0 0 1-20.75-8.7q-2.07-1.12-31.13-20.58-22.74 10-50.44 9.94-53.44 0-83.74-31.46t-30.31-88.54c0-37.85 10.13-67.39 30.38-88.41s47.72-31.6 82.41-31.6q51.57 0 81.82 31.6C616 619.53 626 649.07 626 686.92c0 20.09-2.74 37.67-8.37 52.87q-6.37 17.46-20.25 33.72a150.33 150.33 0 0 0 37.45 19.65z m206.49-29.27V803H678.05V572.76h46.82v191.13zM865.61 126v388.7H161.94V126c0-35.34 30.44-63 65.6-63h572.91c35.16 0 65.16 27.71 65.16 63.05zM738.79 178.47H293.18a32 32 0 0 0 0 64h445.61a32 32 0 0 0 0-64zM513.69 607c-19.1 0-34.57 6.7-46.44 20s-17.79 33.29-17.79 60q0 40.73 17.79 60.88t45 20.21a55.91 55.91 0 0 0 19.16-3.31 131.88 131.88 0 0 0-29-14.58l13.12-26.79a159.32 159.32 0 0 1 44.14 23.78 70.25 70.25 0 0 0 13.5-25.66q4.5-15 4.5-34.53 0-40.17-17.66-60.07T513.69 607z" /></svg>