<?xml version="1.0" standalone="no"?><!DOCTYPE svg PUBLIC "-//W3C//DTD SVG 1.1//EN" "http://www.w3.org/Graphics/SVG/1.1/DTD/svg11.dtd"><svg t="1673258429369" class="icon" viewBox="0 0 1024 1024" version="1.1" xmlns="http://www.w3.org/2000/svg" p-id="5082" xmlns:xlink="http://www.w3.org/1999/xlink" width="200" height="200"><path fill="#ffffff" d="M439.466667 349.866667c-12.8-8.533333-29.866667 4.266667-29.866667 17.066666v285.866667c0 17.066667 17.066667 25.6 34.133333 17.066667l247.466667-145.066667c12.8-8.533333 12.8-29.866667 0-38.4l-251.733333-136.533333z" p-id="5083"></path><path fill="#ffffff" d="M503.466667 93.866667c-234.666667 0-422.4 187.733333-422.4 422.4S268.8 938.666667 503.466667 938.666667s422.4-187.733333 422.4-422.4-192-422.4-422.4-422.4z m0 780.8c-196.266667 0-358.4-162.133333-358.4-358.4s162.133333-358.4 358.4-358.4 358.4 162.133333 358.4 358.4-162.133333 358.4-358.4 358.4z" p-id="5084"></path></svg>