<?xml version="1.0" standalone="no"?><!DOCTYPE svg PUBLIC "-//W3C//DTD SVG 1.1//EN" "http://www.w3.org/Graphics/SVG/1.1/DTD/svg11.dtd"><svg class="icon" width="32px" height="32.00px" viewBox="0 0 1024 1024" version="1.1" xmlns="http://www.w3.org/2000/svg"><path fill="#ffffff" d="M384 704h256V576H384v128z m0 64v128h256v-128H384z m512-64V576h-192v128h192z m0 64h-192v128h128c38.4 0 64-25.6 64-64v-64zM128 704h192V576H128v128z m0 64v64c0 38.4 25.6 64 64 64h128v-128H128z m256-256h256V384H384v128z m512 0V384h-192v128h192zM128 512h192V384H128v128z m768-192V192c0-38.4-25.6-64-64-64H192c-38.4 0-64 25.6-64 64v128h768zM192 64h640c70.4 0 128 57.6 128 128v640c0 70.4-57.6 128-128 128H192c-70.4 0-128-57.6-128-128V192c0-70.4 57.6-128 128-128z" /></svg>